<svg xmlns="http://www.w3.org/2000/svg" version="1.1" xmlns:xlink="http://www.w3.org/1999/xlink" xmlns:svgjs="http://svgjs.dev/svgjs" width="1440" height="560" preserveAspectRatio="none" viewBox="0 0 1440 560"><g mask="url(&quot;#SvgjsMask1002&quot;)" fill="none"><rect width="1440" height="560" x="0" y="0" fill="url(&quot;#SvgjsLinearGradient1003&quot;)"></rect><path d="M1402.5394591042686 185.52370533918204L1470.7148362658108 57.59873109714209 1344.0184694179368 59.810224406641z" fill="rgba(28, 83, 142, 0.4)" class="triangle-float3"></path><path d="M977.0033115844034 443.2035658170446L1070.4848565024188 356.1970281582384 964.3131671470038 321.69975510434244z" fill="rgba(28, 83, 142, 0.4)" class="triangle-float2"></path><path d="M251.84,596.294C306.783,594.889,357.672,567.489,385.469,520.075C413.592,472.105,415.232,412.797,387.762,364.45C359.965,315.528,308.107,284.818,251.84,284.891C195.696,284.963,145.499,316.71,116.524,364.799C86.511,414.611,76.476,477.019,105.824,527.226C134.946,577.047,194.151,597.769,251.84,596.294" fill="rgba(28, 83, 142, 0.4)" class="triangle-float1"></path><path d="M1003.14,110.914C1024.5,109.371,1041.537,95.868,1053.16,77.88C1066.18,57.73,1079.191,32.792,1066.946,12.163C1054.828,-8.251,1026.823,-8.023,1003.14,-6.386C982.932,-4.989,964.54,3.409,952.977,20.04C939.19,39.87,927.138,64.998,938.81,86.142C950.712,107.703,978.576,112.689,1003.14,110.914" fill="rgba(28, 83, 142, 0.4)" class="triangle-float3"></path><path d="M1168.016,151.683C1202.982,152.017,1239.641,143.862,1258.525,114.431C1278.769,82.88,1278.951,41.394,1259.242,9.506C1240.416,-20.954,1203.803,-33.226,1168.016,-32.009C1134.486,-30.869,1104.3,-13.342,1086.934,15.363C1068.888,45.192,1062.628,82.768,1080.45,112.731C1097.953,142.159,1133.778,151.356,1168.016,151.683" fill="rgba(28, 83, 142, 0.4)" class="triangle-float1"></path><path d="M967.6503075552133 133.39996871597117L1067.2893046521826 68.69364742261465 902.9439862618568 33.760971619001936z" fill="rgba(28, 83, 142, 0.4)" class="triangle-float3"></path><path d="M1011.027,366.513C1052.761,370.198,1097.021,355.483,1118.453,319.484C1140.282,282.818,1134.228,235.442,1109.956,200.345C1088.549,169.39,1048.628,162.518,1011.027,164.146C976.796,165.628,942.83,178.525,925.901,208.314C909.146,237.797,916.032,273.168,932.101,303.03C949.248,334.896,974.98,363.33,1011.027,366.513" fill="rgba(28, 83, 142, 0.4)" class="triangle-float1"></path><path d="M439.684,491.953C482.175,494.356,520.191,466.584,541.154,429.546C561.798,393.072,563.371,347.927,541.401,312.236C520.374,278.077,479.792,265.265,439.684,264.705C398.35,264.128,352.569,272.953,332.928,309.327C313.877,344.608,336.082,384.478,356.317,419.094C376.279,453.243,400.191,489.72,439.684,491.953" fill="rgba(28, 83, 142, 0.4)" class="triangle-float3"></path><path d="M529.6305757652646 217.45467575351336L555.9347818614075 323.38505665554567 625.7147024155413 258.31422802932843z" fill="rgba(28, 83, 142, 0.4)" class="triangle-float1"></path></g><defs><mask id="SvgjsMask1002"><rect width="1440" height="560" fill="#ffffff"></rect></mask><linearGradient x1="15.28%" y1="-39.29%" x2="84.72%" y2="139.29%" gradientUnits="userSpaceOnUse" id="SvgjsLinearGradient1003"><stop stop-color="#0e2a47" offset="0"></stop><stop stop-color="rgba(13, 81, 214, 0.92)" offset="1"></stop></linearGradient><style>
                @keyframes float1 {
                    0%{transform: translate(0, 0)}
                    50%{transform: translate(-10px, 0)}
                    100%{transform: translate(0, 0)}
                }

                .triangle-float1 {
                    animation: float1 5s infinite;
                }

                @keyframes float2 {
                    0%{transform: translate(0, 0)}
                    50%{transform: translate(-5px, -5px)}
                    100%{transform: translate(0, 0)}
                }

                .triangle-float2 {
                    animation: float2 4s infinite;
                }

                @keyframes float3 {
                    0%{transform: translate(0, 0)}
                    50%{transform: translate(0, -10px)}
                    100%{transform: translate(0, 0)}
                }

                .triangle-float3 {
                    animation: float3 6s infinite;
                }
            </style></defs></svg>